<svg xmlns="http://www.w3.org/2000/svg" xmlns:xlink="http://www.w3.org/1999/xlink" fill="none" version="1.1" width="18" height="18" viewBox="0 0 18 18"><g><path d="M16,4.197L16,7Q16,7.09849,16.019199999999998,7.19509Q16.0384,7.29169,16.0761,7.38268Q16.113799999999998,7.47368,16.1685,7.55557Q16.2232,7.63746,16.2929,7.70711Q16.3625,7.77675,16.4444,7.83147Q16.5263,7.88619,16.6173,7.92388Q16.7083,7.96157,16.8049,7.98078Q16.9015,8,17,8Q17.0985,8,17.1951,7.98078Q17.2917,7.96157,17.3827,7.92388Q17.4737,7.88619,17.5556,7.83147Q17.6375,7.77675,17.7071,7.70711Q17.7767,7.63746,17.8315,7.55557Q17.8862,7.47368,17.9239,7.38268Q17.9616,7.29169,17.9808,7.19509Q18,7.09849,18,7L18,4.197Q18,3.17766,17.9694,2.8038499999999997Q17.9124,2.10694,17.6726,1.637293Q17.231,0.770061,16.360799999999998,0.32690600000000003Q15.892,0.08755999999999997,15.1948,0.03057399999999999Q14.8208,0,13.8,0L4.2,0Q3.17921,0,2.80506,0.030572000000000044Q2.10818,0.08751299999999995,1.638137,0.326929Q0.769375,0.769375,0.32690600000000003,1.6381809999999999Q0.08751299999999995,2.10818,0.030572000000000044,2.80506Q0,3.17921,0,4.2L0,13.8Q0,14.8208,0.030572000000000044,15.1949Q0.08751299999999995,15.8918,0.326928,16.3619Q0.769521,17.2305,1.637999,17.673Q2.10694,17.9124,2.8038499999999997,17.9694Q3.17766,18,4.197,18L7,18Q7.09849,18,7.19509,17.9808Q7.29169,17.9616,7.38268,17.9239Q7.47368,17.8862,7.55557,17.8315Q7.63746,17.7767,7.70711,17.7071Q7.77675,17.6375,7.83147,17.5556Q7.88619,17.4737,7.92388,17.3827Q7.96157,17.2917,7.98078,17.1951Q8,17.0985,8,17Q8,16.9015,7.98078,16.8049Q7.96157,16.7083,7.92388,16.6173Q7.88619,16.5263,7.83147,16.4444Q7.77675,16.3625,7.70711,16.2929Q7.63746,16.2232,7.55557,16.1685Q7.47368,16.113799999999998,7.38268,16.0761Q7.29169,16.0384,7.19509,16.019199999999998Q7.09849,16,7,16L4.197,16Q2.7595099999999997,16,2.5460000000000003,15.891Q2.25651,15.7435,2.10907,15.4541Q2,15.24,2,13.8L2,4.2Q2,2.76,2.10909,2.54582Q2.2564599999999997,2.2564599999999997,2.5458600000000002,2.10907Q2.76,2,4.2,2L13.8,2Q15.2395,2,15.4532,2.10909Q15.7439,2.25715,15.8914,2.54671Q16,2.7595099999999997,16,4.197ZM14.3162,12.902Q15,11.8426,15,10.5Q15,8.636040000000001,13.682,7.31802Q12.364,6,10.5,6Q8.636040000000001,6,7.31802,7.31802Q6,8.636040000000001,6,10.5Q6,12.364,7.31802,13.682Q8.636040000000001,15,10.5,15Q11.8426,15,12.902,14.3162L15.2929,16.7071Q15.4335,16.8478,15.6173,16.9239Q15.8011,17,16,17Q16.198900000000002,17,16.3827,16.9239Q16.566499999999998,16.8478,16.7071,16.7071Q16.8478,16.566499999999998,16.9239,16.3827Q17,16.198900000000002,17,16Q17,15.8011,16.9239,15.6173Q16.8478,15.4335,16.7071,15.2929L14.3162,12.902ZM13,10.5Q13,11.5355,12.2678,12.2678Q11.5355,13,10.5,13Q9.46447,13,8.732230000000001,12.2678Q8,11.5355,8,10.5Q8,9.46447,8.732230000000001,8.732230000000001Q9.46447,8,10.5,8Q11.5355,8,12.2678,8.732230000000001Q13,9.46447,13,10.5Z" fill-rule="evenodd" fill="#FFFFFF" fill-opacity="1"/></g></svg>